<svg width="106" height="67" viewBox="0 0 106 67" fill="none" xmlns="http://www.w3.org/2000/svg">
<path d="M17.776 47C15.952 47 14.536 46.52 13.528 45.56C12.52 44.6 12.016 43.256 12.016 41.528V23.6C12.016 22.928 12.232 22.4 12.664 22.016C13.096 21.632 13.672 21.44 14.392 21.44C15.112 21.44 15.688 21.644 16.12 22.052C16.576 22.436 16.804 22.952 16.804 23.6V41.528C16.804 42.08 16.936 42.512 17.2 42.824C17.488 43.136 17.872 43.292 18.352 43.292H29.872C30.592 43.292 31.144 43.46 31.528 43.796C31.912 44.108 32.104 44.564 32.104 45.164C32.104 45.74 31.9 46.196 31.492 46.532C31.108 46.844 30.568 47 29.872 47H17.776ZM38.4993 47.36C37.7793 47.36 37.2033 47.168 36.7713 46.784C36.3393 46.4 36.1233 45.872 36.1233 45.2V23.6C36.1233 22.928 36.3393 22.4 36.7713 22.016C37.2033 21.632 37.7793 21.44 38.4993 21.44C39.1953 21.44 39.7713 21.632 40.2273 22.016C40.6833 22.4 40.9113 22.928 40.9113 23.6V45.2C40.9113 45.872 40.6833 46.4 40.2273 46.784C39.7713 47.168 39.1953 47.36 38.4993 47.36ZM48.2081 47.36C47.4881 47.36 46.9121 47.168 46.4801 46.784C46.0481 46.4 45.8321 45.872 45.8321 45.2V31.628C45.8321 28.436 46.8281 25.94 48.8201 24.14C50.8121 22.34 53.5721 21.44 57.1001 21.44C60.6281 21.44 63.3881 22.34 65.3801 24.14C67.3721 25.94 68.3681 28.436 68.3681 31.628V45.2C68.3681 45.872 68.1521 46.4 67.7201 46.784C67.2881 47.168 66.7121 47.36 65.9921 47.36C65.2721 47.36 64.6841 47.168 64.2281 46.784C63.7961 46.376 63.5801 45.848 63.5801 45.2V31.52C63.5801 29.48 63.0281 27.92 61.9241 26.84C60.8201 25.76 59.2121 25.22 57.1001 25.22C54.9881 25.22 53.3801 25.76 52.2761 26.84C51.1721 27.92 50.6201 29.48 50.6201 31.52V45.2C50.6201 45.848 50.3921 46.376 49.9361 46.784C49.5041 47.168 48.9281 47.36 48.2081 47.36ZM91.6075 47.36C90.0955 47.36 89.2435 46.832 89.0515 45.776C88.5955 43.208 87.6955 41.072 86.3515 39.368C85.0315 37.664 83.0995 36.152 80.5555 34.832L76.9915 37.784V45.2C76.9915 45.848 76.7635 46.376 76.3075 46.784C75.8755 47.168 75.2995 47.36 74.5795 47.36C73.8595 47.36 73.2835 47.168 72.8515 46.784C72.4195 46.4 72.2035 45.872 72.2035 45.2V23.6C72.2035 22.928 72.4195 22.4 72.8515 22.016C73.2835 21.632 73.8595 21.44 74.5795 21.44C75.2995 21.44 75.8755 21.644 76.3075 22.052C76.7635 22.436 76.9915 22.952 76.9915 23.6V32.564L89.0155 22.088C89.4475 21.68 89.9515 21.476 90.5275 21.476C91.1035 21.476 91.6075 21.704 92.0395 22.16C92.4955 22.664 92.7235 23.132 92.7235 23.564C92.7235 24.068 92.4355 24.572 91.8595 25.076L83.5795 32.276C86.4595 33.524 88.7515 35.288 90.4555 37.568C92.1835 39.824 93.2155 42.32 93.5515 45.056C93.6235 45.68 93.4675 46.22 93.0835 46.676C92.6995 47.132 92.2075 47.36 91.6075 47.36Z" fill="#0449B0"/>
</svg>
